<svg xmlns="http://www.w3.org/2000/svg" xmlns:xlink="http://www.w3.org/1999/xlink" width="51" height="50" viewBox="0 0 51 50"><defs><path id="lhgna" d="M423.78 1904.45l.94 6.8-6.43 2.6-2.55 6.43-6.81-.94-5.49 4.2-5.48-4.2-6.81.94-2.55-6.42-6.43-2.55.94-6.8-4.2-5.48 4.26-5.54-.94-6.8 6.42-2.55 2.55-6.42 6.82.94 5.48-4.2 5.54 4.26 6.81-.94 2.55 6.42 6.43 2.54-.94 6.8 4.2 5.49zm-10.09-11.57l-2.1-1.82-10.42 12-6.1-4.97-1.76 2.16 8.2 6.75z"/></defs><g><g transform="translate(-378 -1874)"><use fill="#fff" xlink:href="#lhgna"/></g></g></svg>