<svg xmlns="http://www.w3.org/2000/svg" xmlns:xlink="http://www.w3.org/1999/xlink" width="43" height="43" viewBox="0 0 43 43"><defs><path id="uvwpa" d="M737.47 1889.34l10.28-10.29a.89.89 0 1 1 1.26 1.26l-10.29 10.28a.89.89 0 1 1-1.25-1.25zm8.41 10.35l-20 20c-.65.64-1.7.64-2.34 0l-4.45-4.45 2.2-2.2-6.27-6.27-2.2 2.2-4.45-4.45a1.65 1.65 0 0 1 0-2.34l20-20c.35-.35.83-.52 1.32-.48l12.4 1.13-3.1 3.1a3.76 3.76 0 1 0 3.14 3.13l3.1-3.1 1.13 12.4c.04.5-.13.98-.48 1.33z"/></defs><g><g transform="translate(-707 -1878)"><use fill="#2a363f" xlink:href="#uvwpa"/></g></g></svg>