<svg xmlns="http://www.w3.org/2000/svg" xmlns:xlink="http://www.w3.org/1999/xlink" width="47" height="45" viewBox="0 0 47 45"><defs><path id="jm3ua" d="M1064.36 1920.94a.47.47 0 0 1-.93-.08c-.1-6.57 1.03-19.94 11.03-28.29l.06.06 1.3 1.28-.3 1.8c-.16.9.06 1.8.57 2.51-3.75 2.94-8.97 9.29-11.73 22.72zm-7.78-31.72c2.28 6.16 4.54 16.02 4.42 30.8a.31.31 0 0 1-.62.05c-.98-6.86-3.43-20.46-8.14-27.12l.07-.16 1.15-2.87 3.02-.67.1-.03zm20.3 24.65v.02c-4.64.67-7.74 3.98-9.47 6.48a.65.65 0 0 1-1.16-.54c1.58-5.69 6.53-7.93 9.82-8.81.07.56.28 1.1.62 1.57l.43.6zm-18.5 6.54a.44.44 0 0 1-.83.24c-1.23-3.08-3.27-7.37-6.03-10.5.07-.2.11-.4.14-.62l.1-.73.64-.33c.48-.25.88-.6 1.18-1.03 1.8 2.5 3.72 6.54 4.8 12.97zm18.23-29.92a.36.36 0 0 1 .2-.6l3.36-.5 1.5-3.04a.36.36 0 0 1 .64 0l1.5 3.05 3.37.48a.36.36 0 0 1 .2.61l-2.44 2.37.58 3.35a.36.36 0 0 1-.52.38l-3-1.58-3.02 1.58a.35.35 0 0 1-.37-.03.36.36 0 0 1-.14-.35l.57-3.35zm-25.34-3.14l-1.74 4.33a.36.36 0 0 1-.63.04l-2.38-4.01-4.66-.32a.36.36 0 0 1-.24-.6l3.09-3.5-1.14-4.52a.36.36 0 0 1 .49-.41l4.28 1.85 3.95-2.48a.36.36 0 0 1 .55.34l-.44 4.64 3.58 3a.36.36 0 0 1-.15.62zm35.36 24.77l-1.9 1.3v2.3a.35.35 0 0 1-.57.29l-1.83-1.4-2.18.71a.35.35 0 0 1-.37-.09.35.35 0 0 1-.08-.37l.77-2.17-1.36-1.86a.35.35 0 0 1 .3-.56l2.3.06 1.35-1.86a.35.35 0 0 1 .63.1l.66 2.2 2.18.72a.36.36 0 0 1 .1.63zm-37.66-5.24l-.28 2.28a.36.36 0 0 1-.6.2l-1.64-1.6-2.26.43h-.07a.36.36 0 0 1-.32-.5l1.03-2.06-1.11-2.02a.36.36 0 0 1 .36-.52l2.28.34 1.57-1.68a.35.35 0 0 1 .6.18l.39 2.27 2.08.98a.36.36 0 0 1 .01.63zm17.45-19.75c-2.05 4.16-2.86 9.47-3.17 12.76-.04.38-.6.39-.64 0-.84-7.08-.04-11.8 1.1-14.84.4.33.89.56 1.42.68l.7.15.29.67c.08.2.18.4.3.58zm.87-9.06a.36.36 0 0 1 .38 0l1.96 1.2 2.1-.92a.35.35 0 0 1 .37.05c.1.09.15.23.12.36l-.54 2.23 1.53 1.72a.36.36 0 0 1-.24.59l-2.3.17-1.15 2a.36.36 0 0 1-.64-.05l-.87-2.13-2.25-.49a.36.36 0 0 1-.15-.62l1.75-1.48-.23-2.3a.36.36 0 0 1 .16-.33z"/></defs><g><g transform="translate(-1041 -1877)"><use fill="#2a363f" xlink:href="#jm3ua"/></g></g></svg>