<svg xmlns="http://www.w3.org/2000/svg" xmlns:xlink="http://www.w3.org/1999/xlink" width="51" height="45" viewBox="0 0 51 45"><defs><path id="xnt1a" d="M1411.07 1886.88l-.58 3.72-35.07-7.43.58-3.71a2.4 2.4 0 0 1 2.83-1.85l30.4 6.44a2.4 2.4 0 0 1 1.84 2.83zm-14.1 6.39l12.2 2.58-2.14 10.14a2.4 2.4 0 0 1-2.84 1.85l-3.39-.72.9 3.26a2.42 2.42 0 0 1-1.67 2.97l-30.22 8.4a2.42 2.42 0 0 1-2.97-1.68l-5.26-19a2.42 2.42 0 0 1 1.68-2.97l9.34-2.6 1.5-7.07 13.6 2.88 5.77-1.6c1.28-.36 2.62.4 2.97 1.68zm3.72 8.94l3.53.75a.99.99 0 0 0 1.17-.76l.74-3.54a.99.99 0 0 0-.76-1.16l-3.53-.75a.99.99 0 0 0-1.16.76l-.75 3.53a.99.99 0 0 0 .76 1.17zm-37.22-1.67l1.03 3.72 31.08-8.63-.79-2.82-.25-.9a.46.46 0 0 0-.54-.3l-2.13.58-19.73 5.48-8.36 2.32a.45.45 0 0 0-.3.55zm35.17 6.12l-1.9-6.83-31.07 8.63 3.07 11.08a.46.46 0 0 0 .55.3l30.21-8.38a.44.44 0 0 0 .27-.21c.04-.08.08-.2.04-.34zm-23.49 8.54a.99.99 0 0 1-.68 1.2l-3.53.99a.99.99 0 0 1-1.21-.69l-.98-3.53a.99.99 0 0 1 .68-1.2l3.53-.99a.99.99 0 0 1 1.21.69z"/></defs><g><g transform="translate(-1361 -1877)"><use fill="#2a363f" xlink:href="#xnt1a"/></g></g></svg>