<svg xmlns="http://www.w3.org/2000/svg" xmlns:xlink="http://www.w3.org/1999/xlink" width="22" height="22" viewBox="0 0 22 22"><defs><path id="eihza" d="M393.61 173.1l.51 3.43L391 175l-3.12 1.54.5-3.44-2.43-2.49 3.43-.58 1.62-3.08 1.62 3.08 3.43.58zm-6.16 4.92l-2.62-.32-1.84 1.9-.5-2.6-2.38-1.16 2.31-1.28.38-2.61 1.93 1.8 2.6-.46-1.1 2.4zm14.44-2.18l-2.37 1.17-.51 2.58-1.84-1.89-2.63.32 1.24-2.33-1.11-2.4 2.6.45 1.93-1.8.38 2.62zm-12.76 1.95h1.3v9.29h-1.3zm-1.34 6.24l-1.29.2c-.25-1.61-.72-3.2-1.38-4.69l-.16-.35 1.2-.53.15.35c.72 1.6 1.21 3.3 1.48 5.02zm9.25-4.84l-.16.35a18.55 18.55 0 0 0-1.38 4.7l-1.3-.2c.28-1.74.77-3.43 1.49-5.03l.15-.35zm-5.48-1.4h1.31v9.29h-1.3zm5.34-7.25l.9-.9.9.9-.9.9zm-3.65-2.72l.9-.9.9.9-.9.9zm-9.95 2.72l.9-.9.9.9-.9.9z"/></defs><g><g transform="translate(-380 -166)"><use fill="#ff6e41" xlink:href="#eihza"/></g></g></svg>