<svg xmlns="http://www.w3.org/2000/svg" xmlns:xlink="http://www.w3.org/1999/xlink" width="21" height="23" viewBox="0 0 21 23"><defs><path id="w0oba" d="M389.28 560.7a.9.9 0 0 1 1.8-.18h.94c.2 0 .36.16.36.35v.5l-4.37 4.38v-2.44l2.6-2.6zm7.75-7.69l-6.84 6.52 6.51-6.84zm-14.3-.45l6.52 6.84-6.84-6.51zm7-1.06l-.22 6.35-.23-6.35zm9.58 4.9l-5.91 2.33 5.73-2.75zm-18.32-.31l5.83 2.53-6-2.11zm5.92-4.81c.22-.06.44-.04.67.04.1.05.22.11.32.23.1.1.15.27.12.42a.69.69 0 0 1-.17.34l-.23.25c-.16.15-.3.3-.37.48a1 1 0 0 0-.07.5c.02.16.1.3.2.45.18.3.47.58.75.9l-.02.05a1.78 1.78 0 0 1-.62-.23c-.19-.1-.37-.25-.51-.44a1.14 1.14 0 0 1-.23-.7.91.91 0 0 1 .29-.67c.16-.17.35-.28.47-.44a.7.7 0 0 0 .13-.5.44.44 0 0 0-.06-.16.75.75 0 0 0-.17-.16c-.14-.11-.32-.2-.51-.32zm9.6 9.43a.8.8 0 0 1-.01.53.6.6 0 0 1-.18.26.44.44 0 0 1-.35.1c-.25-.05-.34-.23-.46-.34a.9.9 0 0 0-.37-.27.78.78 0 0 0-.36-.03c-.1.02-.2.08-.31.15-.22.13-.45.33-.72.53l-.04-.02c0-.18.06-.34.14-.5.08-.15.19-.3.34-.4a.9.9 0 0 1 .57-.19c.21 0 .4.12.52.25.13.14.2.28.33.37.12.09.3.1.38.07l.08-.04a.55.55 0 0 0 .12-.11l.27-.37zm-4.76-8.22a.79.79 0 0 1 .53 0 .6.6 0 0 1 .26.18c.08.09.13.23.1.35-.04.25-.22.34-.33.46a.9.9 0 0 0-.27.37.78.78 0 0 0-.03.36c.02.1.08.2.15.3.13.23.33.45.53.73l-.02.04a1.2 1.2 0 0 1-.5-.14c-.15-.08-.3-.2-.41-.34a.9.9 0 0 1-.18-.57c0-.21.11-.4.25-.52s.28-.2.36-.33c.1-.12.1-.3.08-.37l-.04-.09a.53.53 0 0 0-.11-.11c-.1-.09-.24-.17-.37-.27zm-7.22 2.95a.23.23 0 1 1 0 .46.23.23 0 0 1 0-.46zm4.15.75a.17.17 0 1 1 0 .34.17.17 0 0 1 0-.34zm7.88-1.27a.2.2 0 1 1 0 .41.2.2 0 0 1 0-.41zm-2-3.19a.17.17 0 1 1-.01.34.17.17 0 0 1 0-.34zm-.14 1.12a.24.24 0 1 1 0 .47.24.24 0 0 1 0-.47zm-2.54 6.55a.3.3 0 1 1 0 .6.3.3 0 0 1 0-.6zm-6-.02a.2.2 0 1 1 0 .42.2.2 0 0 1 0-.42zm2.02-3.7a.11.11 0 1 1 0 .22.11.11 0 0 1 0-.23zm-8.15 3.7a.26.26 0 1 1 0 .52.26.26 0 0 1 0-.52zm.44-.72a.18.18 0 1 1 0 .36.18.18 0 0 1 0-.36zm1.83-5.57a.33.33 0 1 1 0 .65.33.33 0 0 1 0-.65zm-.05 1.58a.12.12 0 1 1 0 .25.12.12 0 0 1 0-.25zm6.71-3.37a.17.17 0 1 1 0 .34.17.17 0 0 1 0-.34zm-3.28.77a.22.22 0 1 1 0 .44.22.22 0 0 1 0-.44zm3.08 1.25a.2.2 0 1 1 0 .4.2.2 0 0 1 0-.4zm1.93 1.94a.22.22 0 1 1 0 .44.22.22 0 0 1 0-.44zm1.38.64a.21.21 0 1 1 0 .43.21.21 0 0 1 0-.43zm4.96 3.25a.1.1 0 0 1-.08-.03c-1.05.33-2.1.7-3.18 1l-.02-.04a10.9 10.9 0 0 1 3.18-1.35 6.32 6.32 0 0 1 1.3-.13c.16 0 .31.02.46.08a.44.44 0 0 1 .33.35.91.91 0 0 1-.07.46c-.1.28-.24.53-.4.78-.32.48-.63.95-.84 1.45-.1.24-.17.5-.15.72.02.21.14.4.33.57.37.35.91.65 1.3 1.12a2.43 2.43 0 0 1 .6 1.65h-.05a2.66 2.66 0 0 0-.8-1.4 5 5 0 0 0-.66-.5c-.24-.15-.48-.3-.72-.51-.12-.1-.23-.24-.32-.39a1.13 1.13 0 0 1-.15-.5c-.02-.36.1-.67.23-.94.26-.55.65-1 1.03-1.42.17-.22.35-.44.46-.7a.69.69 0 0 0 .07-.37c-.02-.12-.12-.2-.24-.23a1.71 1.71 0 0 0-.8.03c-.25.06-.48.14-.72.21a.1.1 0 0 1-.1.1zm1.94-.72a.15.15 0 1 1 0 .3.15.15 0 0 1 0-.3zm.52-.58a.2.2 0 1 1 0 .41.2.2 0 0 1 0-.41zm-4.03-1.66c.06 0 .1.05.1.11a.11.11 0 0 1-.22 0c0-.06.05-.11.12-.11zm-6.78 3.65c-1.09-.37-2.17-.75-3.26-1.02a8.6 8.6 0 0 0-.82-.15 1.82 1.82 0 0 0-.76.02c-.1.04-.12.07-.13.13-.02.07 0 .19.05.3.1.23.25.46.41.68.34.45.7.93.95 1.48.12.28.22.59.2.93-.02.17-.08.34-.17.49-.09.14-.2.26-.31.36-.47.4-.99.63-1.38 1.01-.41.38-.68.9-.78 1.46 0-.58.22-1.16.61-1.61.4-.45.92-.75 1.3-1.12.2-.18.32-.39.33-.62 0-.23-.07-.48-.19-.72a7.83 7.83 0 0 0-.92-1.39 3.64 3.64 0 0 1-.46-.8 1.01 1.01 0 0 1-.07-.53c.02-.1.08-.22.16-.3a.69.69 0 0 1 .27-.16c.35-.1.65-.05.94 0 .3.04.58.12.86.2 1.1.34 2.16.82 3.17 1.36zm.44.68l-.83.83v-.48c0-.2.16-.35.35-.35zm-.83 9.34v-2.15l4.37-4.37v2.5l-4.22 4.21v1.52h.44l3.78-3.78v5.8c0 .15-.3.16-.42.16h-3.53c-.13 0-.42-.01-.42-.16v-3.73zm2.8 1.71h1.41v-1.42zm-2.65.16v1.83c.03.02.13.04.26.04h3.54c.13 0 .23-.02.26-.04v-1.83z"/></defs><g><g transform="translate(-379 -551)"><use fill="#2a363f" xlink:href="#w0oba"/></g></g></svg>