<svg xmlns="http://www.w3.org/2000/svg" xmlns:xlink="http://www.w3.org/1999/xlink" width="22" height="22" viewBox="0 0 22 22"><defs><path id="rnama" d="M391.82 210.31a.82.82 0 1 1-1.64 0 .82.82 0 0 1 1.64 0zm0 2.47a.82.82 0 1 1-1.64 0 .82.82 0 0 1 1.64 0zm-5.25-.46a.82.82 0 1 1-.82-1.43.82.82 0 0 1 .82 1.43zm1.23 2.13a.82.82 0 0 1-.82-1.42.82.82 0 0 1 .82 1.42zm-4.48 1.11a.82.82 0 1 1-1.42-.82.82.82 0 0 1 1.42.82zm2.14 1.23a.82.82 0 1 1-1.43-.82.82.82 0 0 1 1.43.82zm-3.33 3.2a.82.82 0 1 1-1.64 0 .82.82 0 0 1 1.64 0zm2.47 0a.82.82 0 1 1-1.65 0 .82.82 0 0 1 1.65 0zm-1.58 5.56a.82.82 0 1 1-.82-1.43.82.82 0 0 1 .82 1.43zm2.13-1.23a.82.82 0 0 1-.82-1.43.82.82 0 0 1 .82 1.43zm1.72 4.47a.82.82 0 1 1-1.43-.82.82.82 0 0 1 1.43.82zm1.23-2.13a.82.82 0 1 1-1.43-.83.82.82 0 0 1 1.43.83zm8.15 2.43a.82.82 0 1 1-.82-1.42.82.82 0 0 1 .82 1.42zm-1.23-2.13a.82.82 0 1 1-.82-1.42.82.82 0 0 1 .82 1.42zm5.08-1.7a.82.82 0 0 1-1.42-.83.82.82 0 0 1 1.42.82zm-2.13-1.24a.82.82 0 0 1-1.43-.82.82.82 0 0 1 1.43.82zm3.54-4.02a.82.82 0 1 1-1.64 0 .82.82 0 0 1 1.64 0zm-2.46 0a.82.82 0 1 1-1.65 0 .82.82 0 0 1 1.65 0zm.75-4.13a.82.82 0 1 1-.82-1.43.82.82 0 0 1 .82 1.43zm-2.13 1.23a.82.82 0 1 1-.82-1.43.82.82 0 0 1 .82 1.43zm-1.11-5.08a.82.82 0 1 1-1.43-.82.82.82 0 0 1 1.43.82zm-1.23 2.14a.82.82 0 0 1-1.43-.83.82.82 0 0 1 1.43.83zm1.26 6.46h-3.29l2.85 1.64-.62 1.07-2.84-1.65 1.64 2.85-1.07.61-1.64-2.84v8.21h-1.23v-8.21l-1.65 2.84-1.06-.61 1.64-2.85-2.85 1.65-.61-1.07 2.84-1.64h-3.28v-1.23h3.28l-2.84-1.65.61-1.06 2.85 1.64-1.64-2.85 1.06-.61 1.65 2.84v-3.28h1.23v3.28l1.64-2.84 1.07.61-1.64 2.85 2.84-1.64.62 1.06-2.85 1.65h3.29zm-4.77-.62a.82.82 0 1 0-1.64 0 .82.82 0 0 0 1.64 0z"/></defs><g><g transform="translate(-380 -209)"><use fill="#2a363f" xlink:href="#rnama"/></g></g></svg>