<svg xmlns="http://www.w3.org/2000/svg" xmlns:xlink="http://www.w3.org/1999/xlink" width="22" height="18" viewBox="0 0 22 18"><defs><path id="yieda" d="M390.02 262.82l-3.03-.14-1.84 2.41-.8-2.92-2.86-1 2.54-1.67.06-3.03 2.37 1.9 2.9-.87-1.07 2.83zm12.49-1.65l-2.86 1-.8 2.92-1.84-2.41-3.03.14 1.73-2.49-1.07-2.83 2.9.87 2.37-1.9.06 3.03zm-8.79-1.12l-1.14.51-.22 1.23-.84-.92-1.24.16.62-1.08-.55-1.13 1.23.25.9-.86.14 1.24zm.04-4l-1.25-.07-.76 1-.33-1.2-1.18-.42 1.05-.69.02-1.25.98.78 1.2-.36-.44 1.17zm-3.05 14.52h-1.27c0-3.06-1.53-5.37-2.45-6.48l.98-.8a11.66 11.66 0 0 1 2.74 7.28zm5.97-6.48a10.39 10.39 0 0 0-2.45 6.48h-1.27c0-3.45 1.72-6.05 2.74-7.29zm-4.2 6.49l-1.28-.03c.04-1.88.1-4.72-.41-6.95l1.24-.28c.54 2.38.48 5.32.44 7.26z"/></defs><g><g transform="translate(-381 -253)"><use fill="#2a363f" xlink:href="#yieda"/></g></g></svg>