<svg xmlns="http://www.w3.org/2000/svg" xmlns:xlink="http://www.w3.org/1999/xlink" width="20" height="21" viewBox="0 0 20 21"><defs><path id="ahx0a" d="M393.77 300.34a.67.67 0 0 1 0-.94.67.67 0 0 1 .94 0 .67.67 0 0 1 0 .94.67.67 0 0 1-.94 0zm3.73 4.5a.67.67 0 0 1 0-.94.67.67 0 0 1 .94 0 .67.67 0 0 1 0 .94.67.67 0 0 1-.94 0zm-14.65 0a.67.67 0 0 1 .47-1.14.67.67 0 0 1 .66.67c0 .18-.07.35-.2.47a.67.67 0 0 1-.93 0zm8.83 9.2a.67.67 0 0 1 0 .94.67.67 0 0 1-.95 0 .67.67 0 0 1 0-.94.67.67 0 0 1 .95 0zm5.82-17.08a.67.67 0 0 1 0-.94.67.67 0 0 1 .94 0 .67.67 0 0 1 0 .94.67.67 0 0 1-.94 0zm.97 2.55l.45-.77.46.77.84.21-.56.69.07.9-.8-.35-.8.34.06-.9-.56-.68zm-14.6-.23l-.55-.69.84-.21.45-.77.46.77.84.21-.56.69.07.9-.8-.34-.8.34zm17.26 12.08l.07.9-.8-.34-.8.34.06-.9-.56-.68.84-.22.45-.76.46.76.84.22zm-15.56.75l-.56.69.06.9-.8-.35-.8.34.06-.9-.56-.68.85-.21.45-.77.46.77zm7.4-13.37l-.8-.34-.81.34.06-.9-.56-.68.85-.21.45-.77.46.77.84.2-.56.7zm1.96 6.3c-1.2 2.1-1.6 4.49-1.16 7.1a.67.67 0 0 1-1.31.23c-.62-3.69.4-6.41 1.35-8.05a9.76 9.76 0 0 1 2.29-2.73.67.67 0 0 1 .8 1.06c-.01.01-1.06.82-1.97 2.4zm-6.07-.72a11.83 11.83 0 0 1 1.35 8.05.67.67 0 0 1-1.31-.22c.43-2.62.05-5.01-1.16-7.1a8.64 8.64 0 0 0-1.97-2.4.67.67 0 0 1 .8-1.06c.05.04 1.25.94 2.3 2.73zm1.9-.41a.67.67 0 0 1-.56-.76c.27-1.76-1.53-2.68-1.55-2.69a.67.67 0 1 1 .6-1.19c.1.06 2.68 1.38 2.27 4.08a.67.67 0 0 1-.76.56zm9.33 3.35c-.12.04-2.93 1.03-2.93 3.87a.67.67 0 0 1-1.33 0c0-1.58.67-2.98 1.93-4.03a6.5 6.5 0 0 1 1.9-1.1.67.67 0 0 1 .43 1.26zm-13.56.76c.49.97.5 1.94.5 1.99a.67.67 0 0 1-1.34 0c0-.02-.01-.74-.37-1.43-.45-.87-1.22-1.29-2.35-1.29a.67.67 0 1 1 0-1.33c2.09 0 3.09 1.12 3.56 2.06z"/></defs><g><g transform="translate(-382 -295)"><use fill="#2a363f" xlink:href="#ahx0a"/></g></g></svg>