<svg xmlns="http://www.w3.org/2000/svg" xmlns:xlink="http://www.w3.org/1999/xlink" width="21" height="22" viewBox="0 0 21 22"><defs><path id="vm5ra" d="M398.4 339.3l-.33.31.06.43c0 .03 0 .03-.03.06h-.06l-.4-.21-.4.2c-.03.04-.06.04-.09 0-.03 0-.03-.02-.03-.05l.1-.43-.31-.27c-.03-.03-.03-.06-.03-.1 0-.02.03-.05.06-.05l.49-.1.21-.39s.03-.03.06-.03.06 0 .06.03l.19.4.43.06c.03 0 .06.03.06.06s0 .06-.03.09zm-14.78 3.07c0 .03 0 .06-.03.06l-.4.22-.06.42c0 .03-.03.06-.06.06h-.03c-.03 0-.06-.03-.06-.03l-.31-.3-.43.09s-.03 0-.06-.03v-.1l.21-.39-.18-.33c-.03-.03-.03-.06 0-.1 0-.02.03-.02.06-.02l.43.06.3-.34c.04-.03.07-.03.1-.03s.06.03.06.07l.03.45.4.18s.03.03.03.06zm17.91 13.04c0 .03-.03.07-.06.07l-.43.15-.12.42c0 .03-.03.06-.06.06h-.03c-.04 0-.07 0-.07-.03l-.27-.33-.46.03c-.03 0-.06 0-.06-.03-.03-.03-.03-.06 0-.1l.24-.36-.15-.4c-.03-.02-.03-.05 0-.08s.06-.03.1-.03l.42.12.34-.27h.09s.03.03.03.06l.03.45.37.24s.03.03.09.03zM383 352.14c-.01.02 0 .01 0 0zm0-.03v.03l-.42.15-.13.43c0 .03-.03.06-.06.06h-.03c-.03 0-.06 0-.06-.03l-.27-.34-.46.03c-.03 0-.06 0-.06-.03-.04-.03-.04-.06 0-.09l.24-.36-.15-.4c-.03-.03-.03-.06 0-.09s.06-.03.09-.03l.43.12.33-.27h.1s.03.03.03.06l.03.46.37.24c.03 0 .03.03.03.06zm2.24 6.4l-.34.3.07.43c0 .03 0 .03-.04.06h-.06l-.4-.22-.4.22c-.02.03-.05.03-.08 0-.04 0-.04-.03-.04-.06l.1-.43-.3-.3c-.04-.03-.04-.06-.04-.1 0-.02.03-.05.06-.05l.46-.03.21-.4s.04-.03.07-.03c.03 0 .06 0 .06.03l.18.4.43.06c.03 0 .06.03.1.03 0 .03 0 .06-.04.09zm16.04-7.19a.3.3 0 0 1-.3.24h-.06l-7.81-1.51 5.39 3.18c.15.1.18.27.1.4a.37.37 0 0 1-.29.15c-.06 0-.09 0-.15-.03l-5.39-3.19 5.02 6.1c.13.12.1.3-.03.42-.06.03-.12.06-.18.06-.1 0-.18-.06-.24-.12l-5.06-6.1 1.72 4.77c.06.15-.03.33-.19.4-.03.02-.06.02-.09.02a.3.3 0 0 1-.27-.21l-1.72-4.76v7.88c0 .19-.12.3-.3.3-.19 0-.31-.11-.31-.3v-8.1l-3.12 7.53c-.03.12-.16.18-.28.18-.03 0-.1 0-.12-.03-.15-.06-.22-.24-.15-.4l3.03-7.27-3.92 4.3a.28.28 0 0 1-.22.1.28.28 0 0 1-.21-.1c-.12-.12-.15-.3-.03-.42l3.95-4.3-7.01 3.72c-.06.03-.1.03-.16.03a.32.32 0 0 1-.27-.15c-.1-.15-.03-.33.12-.42l6.98-3.7-4.78.7h-.03c-.15 0-.27-.13-.3-.28-.03-.15.09-.3.24-.33l4.78-.7-7.8-1.52c-.2-.03-.28-.21-.25-.36.03-.18.21-.27.36-.24l7.81 1.51-5.57-3.3a.32.32 0 0 1-.1-.43c.1-.12.28-.18.44-.09l5.57 3.3-5.05-6.09c-.13-.12-.1-.3.03-.42.12-.13.3-.1.43.03l5.05 6.1-1.62-4.5c-.07-.15.03-.33.18-.4.15-.05.34.04.4.2l1.62 4.51v-7.89c0-.18.12-.3.3-.3.19 0 .31.12.31.3v8.07l3.13-7.49c.06-.15.24-.21.4-.15.15.06.2.24.15.4l-3.03 7.27 4.47-4.88c.12-.12.3-.15.42-.03.13.12.16.3.03.42l-4.47 4.92 7.02-3.73c.15-.1.33-.03.42.12.1.15.04.33-.12.42l-7.01 3.73 4.26-.63c.15-.03.3.09.33.24.03.15-.09.3-.24.33l-4.26.64 7.81 1.52c.18.03.28.2.24.36zm-2.23-2.73l-.37.06h-.03c-.15 0-.27-.12-.3-.27-.04-.15.09-.3.24-.34l.37-.03c.15-.03.3.1.33.25.04.15-.09.3-.24.33zm-15.06 2.21l-.37.07s-.03 0-.03.03c-.16 0-.28-.13-.3-.28-.04-.15.08-.3.24-.33l.36-.06c.16-.03.31.09.34.24.03.15-.1.3-.24.33zm1.8 5.25l-.55.6a.28.28 0 0 1-.21.1.28.28 0 0 1-.22-.1c-.12-.11-.15-.3-.03-.42l.55-.6c.1-.15.3-.15.43 0 .12.12.15.3.03.42zm12.86-14.16l-.55.6a.28.28 0 0 1-.21.1.28.28 0 0 1-.22-.1c-.12-.12-.15-.3-.03-.42l.55-.58c.12-.12.3-.15.43-.03.12.12.15.3.03.43z"/></defs><g><g transform="translate(-381 -338)"><use fill="#2a363f" xlink:href="#vm5ra"/></g></g></svg>