<svg xmlns="http://www.w3.org/2000/svg" width="19.375" height="18.875" viewBox="0 0 19.375 18.875">
  <metadata><?xpacket begin="﻿" id="W5M0MpCehiHzreSzNTczkc9d"?>
<x:xmpmeta xmlns:x="adobe:ns:meta/" x:xmptk="Adobe XMP Core 5.6-c138 79.159824, 2016/09/14-01:09:01        ">
   <rdf:RDF xmlns:rdf="http://www.w3.org/1999/02/22-rdf-syntax-ns#">
      <rdf:Description rdf:about=""/>
   </rdf:RDF>
</x:xmpmeta>
                                                                                                    
                                                                                                    
                                                                                                    
                                                                                                    
                                                                                                    
                                                                                                    
                                                                                                    
                                                                                                    
                                                                                                    
                                                                                                    
                                                                                                    
                                                                                                    
                                                                                                    
                                                                                                    
                                                                                                    
                                                                                                    
                                                                                                    
                                                                                                    
                                                                                                    
                                                                                                    
                           
<?xpacket end="w"?></metadata>
<defs>
    <style>
      .cls-1 {
        fill: #2a363f;
        fill-rule: evenodd;
      }
    </style>
  </defs>
  <path id="Forma_1" data-name="Forma 1" class="cls-1" d="M399.361,383.045l0.307-.426,0.512-.006-0.3-.4,0.177-.49-0.49.177-0.4-.3-0.006.513-0.426.306,0.486,0.14ZM401.88,383l0.306-.426,0.513-.006-0.3-.4,0.177-.49-0.49.177-0.4-.3-0.006.513-0.426.306,0.486,0.14Zm-0.636,2.543,0.112-.311-0.311.112-0.256-.188,0,0.325-0.27.195,0.308,0.089,0.089,0.308,0.2-.27,0.325,0ZM402.225,387l-0.311.112-0.256-.188,0,0.325-0.271.195,0.309,0.089,0.089,0.308,0.194-.27,0.326,0-0.189-.256Zm0.8-2.829,0.112-.311-0.311.112-0.256-.188,0,0.325-0.27.195,0.308,0.089L402.7,384.7l0.194-.27,0.326,0Zm-5.176.331,0.195-.27,0.325,0-0.188-.256,0.112-.311-0.311.112-0.256-.188,0,0.325-0.27.195,0.308,0.089Zm3.042-.319a0.634,0.634,0,1,0-1.2-.4,3.967,3.967,0,0,1-1.306,1.828l0.9,0.9A5.18,5.18,0,0,0,400.9,384.18Zm-14.251,8.851a0.261,0.261,0,0,0,0,.369l4.228,4.229a0.261,0.261,0,0,0,.369,0l5.722-5.721a0.264,0.264,0,0,0,0-.37l-4.229-4.228a0.261,0.261,0,0,0-.369,0Zm12.988-3.793a0.634,0.634,0,0,0,.107-0.754l-3.948-3.949a0.635,0.635,0,0,0-.757.106l-1.537,1.537a0.261,0.261,0,0,0,0,.369l4.228,4.229a0.263,0.263,0,0,0,.369,0Zm-11.018,11.018,1.5-1.495a0.263,0.263,0,0,0,0-.369l-4.229-4.229a0.262,0.262,0,0,0-.369,0l-1.5,1.5a0.634,0.634,0,0,0,0,.9l3.7,3.7A0.634,0.634,0,0,0,388.615,400.256Z" transform="translate(-383.844 -381.563)"/>
</svg>
