<svg xmlns="http://www.w3.org/2000/svg" width="15.531" height="15.312" viewBox="0 0 15.531 15.312">
  <metadata><?xpacket begin="﻿" id="W5M0MpCehiHzreSzNTczkc9d"?>
<x:xmpmeta xmlns:x="adobe:ns:meta/" x:xmptk="Adobe XMP Core 5.6-c138 79.159824, 2016/09/14-01:09:01        ">
   <rdf:RDF xmlns:rdf="http://www.w3.org/1999/02/22-rdf-syntax-ns#">
      <rdf:Description rdf:about=""/>
   </rdf:RDF>
</x:xmpmeta>
                                                                                                    
                                                                                                    
                                                                                                    
                                                                                                    
                                                                                                    
                                                                                                    
                                                                                                    
                                                                                                    
                                                                                                    
                                                                                                    
                                                                                                    
                                                                                                    
                                                                                                    
                                                                                                    
                                                                                                    
                                                                                                    
                                                                                                    
                                                                                                    
                                                                                                    
                                                                                                    
                           
<?xpacket end="w"?></metadata>
<defs>
    <style>
      .cls-1 {
        fill: #2a363f;
        fill-rule: evenodd;
      }
    </style>
  </defs>
  <path id="Forma_1" data-name="Forma 1" class="cls-1" d="M390.459,435.271l1.683,0.641,0.987,0.375,1.682,0.642,1.433-1.434-4.351-1.657Zm2.055-2.055,4.352,1.658,0.99-.991-3-3Zm-0.993,3.317-1.682-.642-0.4.4a0.721,0.721,0,0,0-.122.858c-0.074.042-.148,0.08-0.227,0.116l-0.035.014c-0.04.016-.082,0.031-0.123,0.043a2.193,2.193,0,0,1-.228.063c-0.034.008-.069,0.015-0.1,0.021l-0.051.008h-0.011a2.243,2.243,0,0,1-.231.017c-0.079,0-.158,0-0.236,0l-0.093-.008c0.021,0-.077-0.013-0.1-0.016-0.35-.066-0.674-0.22-1.019-0.3a3.667,3.667,0,0,0-1.168-.079,0.367,0.367,0,0,0-.361.361,0.361,0.361,0,0,0,.361.361,3.346,3.346,0,0,1,.539-0.01c0.04,0,.08.007,0.119,0.01l0.059,0.006,0.011,0,0.012,0c0.1,0.014.2,0.035,0.293,0.057,0.359,0.087.7,0.247,1.064,0.3a2.872,2.872,0,0,0,2.019-.427l0.275,0.274-4.368,4.371a0.481,0.481,0,1,0,.68.68l4.371-4.371,0.651,0.651a0.719,0.719,0,0,0,1.02,0l1.747-1.746-1.682-.642Zm8.893-8.69a0.477,0.477,0,0,0-.083.006l-5.475.942a0.48,0.48,0,0,0-.258.814l0.985,0.985,2.562,2.562,0.985,0.984a0.472,0.472,0,0,0,.338.142,0.48,0.48,0,0,0,.476-0.4l0.942-5.474A0.48,0.48,0,0,0,400.414,427.843Z" transform="translate(-385.344 -427.844)"/>
</svg>
