<svg xmlns="http://www.w3.org/2000/svg" width="16.312" height="17.438" viewBox="0 0 16.312 17.438">
  <metadata><?xpacket begin="﻿" id="W5M0MpCehiHzreSzNTczkc9d"?>
<x:xmpmeta xmlns:x="adobe:ns:meta/" x:xmptk="Adobe XMP Core 5.6-c138 79.159824, 2016/09/14-01:09:01        ">
   <rdf:RDF xmlns:rdf="http://www.w3.org/1999/02/22-rdf-syntax-ns#">
      <rdf:Description rdf:about=""/>
   </rdf:RDF>
</x:xmpmeta>
                                                                                                    
                                                                                                    
                                                                                                    
                                                                                                    
                                                                                                    
                                                                                                    
                                                                                                    
                                                                                                    
                                                                                                    
                                                                                                    
                                                                                                    
                                                                                                    
                                                                                                    
                                                                                                    
                                                                                                    
                                                                                                    
                                                                                                    
                                                                                                    
                                                                                                    
                                                                                                    
                           
<?xpacket end="w"?></metadata>
<defs>
    <style>
      .cls-1 {
        fill: #2a363f;
        fill-rule: evenodd;
      }
    </style>
  </defs>
  <path id="Forma_1" data-name="Forma 1" class="cls-1" d="M399.043,480.7a0.587,0.587,0,0,0-1.117-.363l-0.424,1.3a0.587,0.587,0,0,0,.377.74,0.577,0.577,0,0,0,.182.029A0.588,0.588,0,0,0,398.62,482Zm3.032-.457a0.587,0.587,0,0,0-.377-0.739l-1.3-.423a0.587,0.587,0,1,0-.363,1.116l1.3,0.423a0.571,0.571,0,0,0,.181.029A0.587,0.587,0,0,0,402.075,480.244Zm-1.763.432a0.587,0.587,0,0,0-1.047.533l0.6,1.177a0.588,0.588,0,0,0,1.048-.533Zm-0.083-2.115a0.589,0.589,0,1,0-.415-0.172A0.591,0.591,0,0,0,400.229,478.561Zm-1.146,3.9a0.589,0.589,0,1,0,.416.173A0.589,0.589,0,0,0,399.083,482.464Zm3.412-1.236a0.587,0.587,0,1,0-.83.83A0.587,0.587,0,1,0,402.5,481.228Zm-5.053-1.879a0.587,0.587,0,1,0,.172.415A0.591,0.591,0,0,0,397.442,479.349Zm-2.167-6.618h-1.729l-7.214,5.169v2.96l9.507-6.935v-0.631A0.563,0.563,0,0,0,395.275,472.731Zm-8.943,12.152,9.507-6.853V474.9l-9.507,6.936v3.045Zm5.364-12.152a3.4,3.4,0,0,1,1.5-2.652,3.262,3.262,0,0,1,3.725.29,3.194,3.194,0,0,1,.565,3.651,5.314,5.314,0,0,0,.609,5.214,0.566,0.566,0,0,0,.436.205,0.564,0.564,0,0,0,.435-0.922,4.194,4.194,0,0,1-.428-4.088,4.276,4.276,0,0,0-.857-4.893,3.955,3.955,0,0,0-2.268-1,4.949,4.949,0,0,0-2.722.532,4.569,4.569,0,0,0-2.136,3.661H386.9a0.564,0.564,0,0,0-.564.563v3.635l5.859-4.2H391.7Zm-5.231,13.016a0.561,0.561,0,0,0,.431.2h3.718l5.225-3.851V479Zm8.81,0.2a0.564,0.564,0,0,0,.564-0.564v-2.306l-3.894,2.87h3.33Z" transform="translate(-386.344 -468.5)"/>
</svg>
