<svg xmlns="http://www.w3.org/2000/svg" width="17.438" height="17.438" viewBox="0 0 17.438 17.438">
  <metadata><?xpacket begin="﻿" id="W5M0MpCehiHzreSzNTczkc9d"?>
<x:xmpmeta xmlns:x="adobe:ns:meta/" x:xmptk="Adobe XMP Core 5.6-c138 79.159824, 2016/09/14-01:09:01        ">
   <rdf:RDF xmlns:rdf="http://www.w3.org/1999/02/22-rdf-syntax-ns#">
      <rdf:Description rdf:about=""/>
   </rdf:RDF>
</x:xmpmeta>
                                                                                                    
                                                                                                    
                                                                                                    
                                                                                                    
                                                                                                    
                                                                                                    
                                                                                                    
                                                                                                    
                                                                                                    
                                                                                                    
                                                                                                    
                                                                                                    
                                                                                                    
                                                                                                    
                                                                                                    
                                                                                                    
                                                                                                    
                                                                                                    
                                                                                                    
                                                                                                    
                           
<?xpacket end="w"?></metadata>
<defs>
    <style>
      .cls-1 {
        fill: #2a363f;
        fill-rule: evenodd;
      }
    </style>
  </defs>
  <path id="Forma_1" data-name="Forma 1" class="cls-1" d="M391,517.573a0.614,0.614,0,0,0,.614-0.614V512.9a0.614,0.614,0,0,0-1.228,0v4.055A0.614,0.614,0,0,0,391,517.573Zm7.954,0.817a14.513,14.513,0,0,0-4.25,1.99,11.01,11.01,0,0,0-2.381,2.184,14.412,14.412,0,0,1,2.651-5.286,10.2,10.2,0,0,1,3.359-2.8,0.614,0.614,0,0,0-.484-1.129,11.157,11.157,0,0,0-3.778,3.089,15.16,15.16,0,0,0-2.541,4.538,18.383,18.383,0,0,0-.643,2.254c-0.058-.208-0.12-0.42-0.188-0.633-1.225-3.852-3.514-6.358-6.62-7.247a0.615,0.615,0,0,0-.338,1.182c2.464,0.7,4.29,2.537,5.439,5.453a11.422,11.422,0,0,0-1.883-1.608,14.5,14.5,0,0,0-4.251-1.991,0.614,0.614,0,0,0-.3,1.192,13.526,13.526,0,0,1,3.883,1.831,7.957,7.957,0,0,1,3.72,5.944h0c0.033,0.466.034,0.744,0.034,0.753a0.614,0.614,0,0,0,1.228,0,7.882,7.882,0,0,1,3.756-6.7,13.5,13.5,0,0,1,3.883-1.831A0.614,0.614,0,0,0,398.951,518.39Zm-16.057,4.036a0.615,0.615,0,1,0,.434.18A0.62,0.62,0,0,0,382.894,522.426Zm6.077-9.921a0.615,0.615,0,1,0-.434-0.18A0.618,0.618,0,0,0,388.971,512.505Zm4.052,0a0.615,0.615,0,1,0-.434-0.18A0.618,0.618,0,0,0,393.023,512.505Zm-5.5,2.861a0.614,0.614,0,0,0,.868-0.869l-1.013-1.014a0.614,0.614,0,0,0-.868.869Zm-0.145,9.268a0.614,0.614,0,0,0-.868.869l1.013,1.013a0.614,0.614,0,0,0,.868-0.869Zm6.222-10.282a0.613,0.613,0,0,0,.868,0l1.013-1.013a0.614,0.614,0,0,0-.868-0.869l-1.013,1.013A0.614,0.614,0,0,0,393.6,514.352Zm1.013,9.268-1.013,1.014a0.614,0.614,0,1,0,.868.869l1.013-1.014A0.614,0.614,0,1,0,394.615,523.62Zm2.025-6.082a0.613,0.613,0,1,0,.434-0.18A0.619,0.619,0,0,0,396.64,517.538Zm1.846-1.593a0.615,0.615,0,1,0,.18-0.434A0.618,0.618,0,0,0,398.486,515.945Zm-0.4,6.481a0.615,0.615,0,1,0,.434.18A0.62,0.62,0,0,0,398.087,522.426ZM391,520.614a0.615,0.615,0,1,0-.434-0.18A0.62,0.62,0,0,0,391,520.614Z" transform="translate(-382.281 -511.281)"/>
</svg>
